<svg width="118" height="42" fill="none" xmlns="http://www.w3.org/2000/svg"><path d="M8 38h11a4 4 0 004-4V8a3 3 0 00-3-3h-9a3 3 0 00-3 3v30z" fill="#124F48"/><path d="M17 13a3 3 0 00-3-3H3a3 3 0 00-3 3v20h15a2 2 0 002-2V13z" fill="#FF823B"/><circle r="5.5" transform="matrix(1 0 0 -1 8.5 21.5)" fill="#124F48"/><path d="M42.203 33c-.187-.375-.34-1.043-.457-2.004-1.512 1.57-3.316 2.356-5.414 2.356-1.875 0-3.416-.528-4.623-1.582-1.195-1.067-1.793-2.415-1.793-4.043 0-1.98.75-3.516 2.25-4.606 1.512-1.101 3.633-1.652 6.363-1.652h3.164v-1.494c0-1.137-.34-2.04-1.02-2.707-.679-.68-1.68-1.02-3.005-1.02-1.16 0-2.133.293-2.918.879-.785.586-1.178 1.295-1.178 2.127h-3.27c0-.95.335-1.863 1.003-2.742.68-.89 1.593-1.594 2.742-2.11 1.16-.515 2.431-.773 3.814-.773 2.192 0 3.909.55 5.15 1.652 1.243 1.09 1.887 2.596 1.934 4.518v8.754c0 1.746.223 3.134.668 4.166V33h-3.41zm-5.396-2.479c1.02 0 1.986-.263 2.9-.79.914-.528 1.576-1.213 1.986-2.057v-3.902h-2.548c-3.985 0-5.977 1.166-5.977 3.498 0 1.02.34 1.816 1.02 2.39.68.574 1.552.861 2.619.861zm16.295-16.54l.088 2.109c1.394-1.64 3.275-2.461 5.642-2.461 2.66 0 4.47 1.02 5.432 3.059a7.229 7.229 0 012.46-2.215c1.02-.563 2.221-.844 3.604-.844 4.172 0 6.293 2.209 6.363 6.627V33H73.44V20.45c0-1.36-.31-2.374-.931-3.042-.621-.68-1.664-1.02-3.13-1.02-1.206 0-2.208.364-3.005 1.09-.797.715-1.26 1.682-1.389 2.9V33h-3.27V20.537c0-2.765-1.353-4.148-4.06-4.148-2.133 0-3.592.908-4.377 2.724V33h-3.252V13.98h3.077zM85.147 33h-3.253V13.98h3.252V33zM81.63 8.936c0-.528.158-.973.475-1.336.328-.364.808-.545 1.44-.545.634 0 1.114.181 1.442.545.328.363.493.808.493 1.336 0 .527-.165.966-.493 1.318-.328.351-.808.527-1.441.527s-1.113-.176-1.441-.527c-.317-.352-.475-.791-.475-1.318zm7.945 14.396c0-2.918.692-5.262 2.074-7.031 1.383-1.781 3.194-2.672 5.432-2.672 2.227 0 3.99.762 5.291 2.285V6h3.252v27h-2.988l-.158-2.04c-1.301 1.595-3.112 2.392-5.432 2.392-2.203 0-4.002-.903-5.397-2.707-1.382-1.805-2.074-4.16-2.074-7.067v-.246zm3.252.37c0 2.155.445 3.843 1.336 5.062.89 1.218 2.121 1.828 3.692 1.828 2.062 0 3.568-.926 4.517-2.777v-8.737c-.973-1.793-2.467-2.69-4.482-2.69-1.594 0-2.836.616-3.727 1.846-.89 1.23-1.336 3.053-1.336 5.467zm17.93 7.593c0-.563.164-1.031.492-1.406.34-.375.844-.563 1.512-.563s1.172.188 1.511.563c.352.375.528.843.528 1.406 0 .539-.176.99-.528 1.353-.339.364-.843.545-1.511.545-.668 0-1.172-.181-1.512-.545-.328-.363-.492-.814-.492-1.353z" fill="#124F48"/></svg>