<svg width="104" height="104" fill="none" xmlns="http://www.w3.org/2000/svg"><rect width="104" height="104" rx="14" fill="#FFF6D5"/><rect x="14.867" y="15" width="74" height="74" rx="14" fill="#FFC90C"/><path d="M60.298 46.323h-3.3v-2.21c0-1.22-.986-2.211-2.2-2.211h-6.6c-1.213 0-2.2.991-2.2 2.21v2.21h-3.3c-1.213 0-2.2.992-2.2 2.211v3.316h22v-3.316c0-1.219-.986-2.21-2.2-2.21zm-12.1-2.21h6.6v2.21h-6.6v-2.21zm5.5 11.052h-4.4v-2.21h-8.8v7.736c0 1.22.987 2.21 2.2 2.21h17.6c1.214 0 2.2-.99 2.2-2.21v-7.737h-8.8v2.21z" fill="#fff"/></svg>