<svg width="104" height="104" fill="none" xmlns="http://www.w3.org/2000/svg"><rect width="104" height="104" rx="14" fill="#FFEFE6"/><rect x="16" y="15" width="74" height="74" rx="14" fill="#FF7527"/><path d="M46.084 57.724H42.61c-.64 0-1.158-.519-1.158-1.158v-9.263c0-.64.518-1.158 1.158-1.158h3.474c.64 0 1.158.518 1.158 1.158v9.263c0 .639-.518 1.158-1.158 1.158zm8.105 0h-3.474c-.64 0-1.158-.519-1.158-1.158V36.882c0-.64.518-1.158 1.158-1.158h3.474c.64 0 1.158.519 1.158 1.158v19.684c0 .639-.518 1.158-1.158 1.158zm8.105 0h-3.473c-.64 0-1.158-.519-1.158-1.158V43.829c0-.64.517-1.158 1.158-1.158h3.473c.64 0 1.158.519 1.158 1.158v12.737c0 .639-.517 1.158-1.158 1.158z" fill="#fff"/></svg>