<svg width="80" height="80" fill="none" xmlns="http://www.w3.org/2000/svg"><rect opacity=".8" width="80" height="80" rx="20" fill="#DBFFE9"/><path d="M29 27h21.667a5 5 0 015 5v15a5 5 0 01-5 5H29a5 5 0 01-5-5V32a5 5 0 015-5zm0 1.667A3.333 3.333 0 0025.667 32v1.667H54V32a3.333 3.333 0 00-3.333-3.333H29zM25.667 47A3.333 3.333 0 0029 50.333h21.667A3.333 3.333 0 0054 47v-8.333H25.667V47zM29 45.333h6.667V47H29v-1.667zm10 0h5V47h-5v-1.667zm-13.333-10V37H54v-1.667H25.667z" fill="#124F48"/><path d="M29 27h21.667a5 5 0 015 5v15a5 5 0 01-5 5H29a5 5 0 01-5-5V32a5 5 0 015-5zm0 1.667A3.333 3.333 0 0025.667 32v1.667H54V32a3.333 3.333 0 00-3.333-3.333H29zM25.667 47A3.333 3.333 0 0029 50.333h21.667A3.333 3.333 0 0054 47v-8.333H25.667V47zM29 45.333h6.667V47H29v-1.667zm10 0h5V47h-5v-1.667zm-13.333-10V37H54v-1.667H25.667z" stroke="#000"/></svg>